<?xml version="1.0" standalone="no"?>
<!DOCTYPE svg PUBLIC "-//W3C//DTD SVG 20010904//EN"
 "http://www.w3.org/TR/2001/REC-SVG-20010904/DTD/svg10.dtd">
<svg version="1.0" xmlns="http://www.w3.org/2000/svg"
 width="1999.470816pt" height="456.363124pt" viewBox="0 0 1999.470816 456.363124"
 preserveAspectRatio="xMidYMid meet">
<g transform="translate(-0.029184,456.380089) scale(0.100000,-0.100000)"
 fill="#3c3c3c" stroke="none">
<path d="M16345 4560 c-380 -25 -715 -168 -956 -409 -161 -162 -255 -324 -312
-539 -29 -110 -30 -128 -31 -302 0 -202 12 -280 72 -433 90 -232 289 -453 569
-630 114 -72 430 -231 778 -392 504 -233 724 -395 835 -615 154 -305 33 -674
-282 -861 -363 -217 -923 -221 -1318 -10 -329 175 -526 466 -556 818 l-7 83
-83 0 -84 0 0 -69 c0 -331 206 -690 521 -907 320 -221 761 -329 1164 -284 576
64 991 321 1192 736 176 365 156 824 -49 1130 -173 259 -456 453 -998 687
-342 147 -436 189 -540 243 -120 61 -266 154 -349 220 -132 107 -240 265 -275
400 -20 79 -21 241 -1 319 21 84 85 209 142 280 110 136 305 252 508 302 100
25 127 27 295 27 160 0 198 -3 280 -23 268 -67 469 -202 619 -416 87 -125 144
-292 157 -462 l7 -83 88 0 c78 0 89 2 89 18 -1 66 -24 222 -46 300 -48 178
-130 323 -261 462 -279 297 -689 440 -1168 410z"/>
<path d="M1677 4288 c-42 -106 -141 -357 -220 -558 -79 -201 -204 -516 -277
-700 -73 -184 -190 -481 -260 -660 -116 -296 -447 -1134 -665 -1685 -48 -121
-115 -292 -150 -380 -35 -88 -72 -184 -84 -212 l-21 -53 108 0 108 0 93 238
c52 130 145 368 208 527 62 160 131 333 152 385 l38 95 918 0 917 0 242 -622
241 -623 383 0 c210 0 382 3 382 6 0 5 -462 1184 -520 1329 -16 39 -49 122
-73 185 -25 63 -79 201 -120 305 -183 464 -215 545 -317 805 -95 242 -694
1765 -707 1798 -4 9 -44 12 -152 12 l-147 0 -77 -192z m47 -920 c52 -134 138
-353 191 -488 53 -135 124 -315 157 -400 34 -85 98 -249 143 -365 150 -381
244 -623 247 -634 2 -7 -254 -11 -840 -13 -463 -2 -842 -2 -842 -1 0 2 275
703 775 1978 24 61 48 122 54 138 6 15 12 27 15 27 2 0 47 -109 100 -242z"/>
<path d="M4201 4458 c12 -23 771 -1304 919 -1553 43 -71 166 -279 274 -462
l196 -331 -131 -209 c-72 -114 -180 -284 -239 -378 -59 -93 -223 -354 -364
-580 -142 -226 -274 -435 -294 -465 -66 -101 -272 -431 -272 -436 0 -2 53 -4
118 -4 l117 0 101 163 c55 89 179 286 274 437 183 290 264 419 585 930 109
173 203 323 210 333 11 16 46 -38 281 -435 147 -249 348 -588 447 -753 98
-165 229 -384 290 -487 l112 -188 394 0 c313 0 391 3 383 13 -5 6 -69 113
-142 237 -73 124 -198 335 -278 470 -148 250 -398 672 -617 1040 -67 113 -154
261 -195 330 -40 69 -114 193 -163 275 -50 83 -90 155 -90 160 0 6 70 120 156
253 87 134 157 247 157 250 0 9 -105 192 -110 192 -3 -1 -75 -113 -160 -249
-85 -137 -157 -248 -161 -246 -3 2 -23 34 -46 72 -60 103 -346 584 -528 888
-88 149 -225 379 -305 513 l-144 242 -393 0 -394 0 12 -22z"/>
<path d="M7243 4473 c16 -28 613 -1036 712 -1203 421 -707 775 -1309 775
-1317 0 -4 -22 -42 -48 -83 -27 -41 -98 -152 -159 -246 l-110 -171 51 -93 c29
-51 55 -93 60 -94 4 0 76 108 159 240 84 133 156 242 161 243 4 1 132 -206
284 -461 635 -1068 718 -1207 732 -1227 15 -21 16 -21 406 -19 l392 3 -96 160
c-122 206 -372 628 -575 970 -88 149 -239 403 -335 565 -96 162 -224 378 -284
479 -60 101 -107 190 -104 197 3 7 108 176 234 376 272 431 618 979 715 1133
38 61 110 175 160 255 49 80 102 163 117 185 14 22 37 57 49 78 l23 37 -120 0
-119 0 -155 -247 c-86 -137 -211 -336 -278 -443 -68 -107 -209 -332 -315 -500
-105 -168 -245 -390 -310 -493 -65 -103 -122 -186 -126 -185 -9 3 -87 132
-549 913 -325 550 -554 932 -562 943 -8 9 -100 12 -400 12 -214 0 -387 -3
-385 -7z"/>
<path d="M11590 2260 l0 -2220 1450 0 1450 0 0 90 0 90 -1090 0 -1090 0 0 990
0 990 625 0 625 0 0 90 0 90 -625 0 -625 0 0 960 0 960 1060 0 1060 0 0 90 0
90 -1420 0 -1420 0 0 -2220z"/>
<path d="M18810 130 l0 -90 593 0 592 0 -3 90 -3 90 -590 0 -589 0 0 -90z" fill="#e9531d"/>
</g>
</svg>
