<?xml version="1.0" encoding="UTF-8" standalone="no"?>
<!DOCTYPE svg PUBLIC "-//W3C//DTD SVG 1.1//EN" "http://www.w3.org/Graphics/SVG/1.1/DTD/svg11.dtd">
<svg width="100%" height="100%" viewBox="0 0 2560 400" version="1.1" xmlns="http://www.w3.org/2000/svg" xmlns:xlink="http://www.w3.org/1999/xlink" xml:space="preserve" xmlns:serif="http://www.serif.com/" style="fill-rule:evenodd;clip-rule:evenodd;stroke-linejoin:round;stroke-miterlimit:2;">
    <g transform="matrix(0.513151,0,0,0.513151,25.5713,-130.439)">
        <path d="M469.983,856L511.789,814.194L511.789,729.37L427.572,729.37L427.572,771.176L216.118,771.176L216.118,516.705L427.572,516.705L427.572,559.117L511.789,559.117L511.789,474.899L469.983,431.881L173.1,431.881L131.294,474.899L131.294,814.194L173.1,856L469.983,856Z" style="fill:rgb(32,32,32);fill-rule:nonzero;stroke:rgb(129,129,129);stroke-width:7.79px;"/>
        <path d="M651.143,856L651.143,686.958L862.596,686.958L862.596,856L946.814,856L946.814,431.881L862.596,431.881L862.596,602.135L651.143,602.135L651.143,431.881L566.319,431.881L566.319,856L651.143,856Z" style="fill:rgb(32,32,32);fill-rule:nonzero;stroke:rgb(129,129,129);stroke-width:7.79px;"/>
        <path d="M1367.3,856L1367.3,771.176L1092.23,771.176L1092.23,686.958L1346.09,686.958L1346.09,602.135L1092.23,602.135L1092.23,516.705L1367.3,516.705L1367.3,431.881L1007.4,431.881L1007.4,856L1367.3,856Z" style="fill:rgb(32,32,32);fill-rule:nonzero;stroke:rgb(129,129,129);stroke-width:7.79px;"/>
        <path d="M1500.59,644.546L1500.59,602.135L1584.81,516.705L1712.05,516.705L1712.05,644.546L1500.59,644.546ZM1500.59,856L1500.59,729.37L1712.05,729.37L1712.05,856L1796.26,856L1796.26,431.881L1542.4,431.881L1415.77,559.723L1415.77,856L1500.59,856Z" style="fill:rgb(32,32,32);fill-rule:nonzero;stroke:rgb(129,129,129);stroke-width:7.79px;"/>
        <path d="M2071.94,856L2071.94,516.705L2219.17,516.705L2219.17,431.881L1838.68,431.881L1838.68,516.705L1987.12,516.705L1987.12,856L2071.94,856Z" style="fill:rgb(32,32,32);fill-rule:nonzero;stroke:rgb(129,129,129);stroke-width:7.79px;"/>
        <path d="M2600.27,856L2642.08,814.194L2642.08,643.941L2600.27,601.529L2346.41,601.529L2346.41,516.705L2557.86,516.705L2557.86,559.117L2642.08,559.117L2642.08,474.899L2600.27,431.881L2303.39,431.881L2261.58,474.899L2261.58,656.664L2303.39,686.958L2557.86,686.958L2557.86,771.176L2346.41,771.176L2346.41,729.37L2261.58,729.37L2261.58,814.194L2303.39,856L2600.27,856Z" style="fill:rgb(32,32,32);fill-rule:nonzero;stroke:rgb(129,129,129);stroke-width:7.79px;"/>
        <path d="M2787.49,856L2787.49,686.958L2998.94,686.958L2998.94,856L3083.16,856L3083.16,431.881L2998.94,431.881L2998.94,602.135L2787.49,602.135L2787.49,431.881L2702.67,431.881L2702.67,856L2787.49,856Z" style="fill:rgb(32,32,32);fill-rule:nonzero;stroke:rgb(129,129,129);stroke-width:7.79px;"/>
        <path d="M3503.64,856L3503.64,771.176L3228.57,771.176L3228.57,686.958L3482.44,686.958L3482.44,602.135L3228.57,602.135L3228.57,516.705L3503.64,516.705L3503.64,431.881L3143.75,431.881L3143.75,856L3503.64,856Z" style="fill:rgb(32,32,32);fill-rule:nonzero;stroke:rgb(129,129,129);stroke-width:7.79px;"/>
        <path d="M3918.07,856L3918.07,771.176L3643,771.176L3643,686.958L3896.86,686.958L3896.86,602.135L3643,602.135L3643,516.705L3918.07,516.705L3918.07,431.881L3558.18,431.881L3558.18,856L3918.07,856Z" style="fill:rgb(32,32,32);fill-rule:nonzero;stroke:rgb(129,129,129);stroke-width:7.79px;"/>
        <path d="M4187.69,856L4187.69,516.705L4334.92,516.705L4334.92,431.881L3954.42,431.881L3954.42,516.705L4102.86,516.705L4102.86,856L4187.69,856Z" style="fill:rgb(32,32,32);fill-rule:nonzero;stroke:rgb(129,129,129);stroke-width:7.79px;"/>
        <path d="M4716.02,856L4757.82,814.194L4757.82,643.941L4716.02,601.529L4462.15,601.529L4462.15,516.705L4673.61,516.705L4673.61,559.117L4757.82,559.117L4757.82,474.899L4716.02,431.881L4419.14,431.881L4377.33,474.899L4377.33,656.664L4419.14,686.958L4673.61,686.958L4673.61,771.176L4462.15,771.176L4462.15,729.37L4377.33,729.37L4377.33,814.194L4419.14,856L4716.02,856Z" style="fill:rgb(32,32,32);fill-rule:nonzero;stroke:rgb(129,129,129);stroke-width:7.79px;"/>
    </g>
</svg>
